<mxfile host="app.diagrams.net" agent="Mozilla/5.0 (Windows NT 10.0; Win64; x64; rv:134.0) Gecko/20100101 Firefox/134.0" version="26.0.6">
  <diagram id="R2lEEEUBdFMjLlhIrx00" name="Page-1">
    <mxGraphModel dx="2465" dy="858" grid="1" gridSize="10" guides="1" tooltips="1" connect="1" arrows="1" fold="1" page="1" pageScale="1" pageWidth="850" pageHeight="1100" math="0" shadow="0" extFonts="Permanent Marker^https://fonts.googleapis.com/css?family=Permanent+Marker">
      <root>
        <mxCell id="0" />
        <mxCell id="1" parent="0" />
        <mxCell id="pEs0mI6m1K89LP00Qf0S-1" value="" style="rounded=0;whiteSpace=wrap;html=1;" vertex="1" parent="1">
          <mxGeometry x="-710" y="60" width="250" height="160" as="geometry" />
        </mxCell>
        <mxCell id="pEs0mI6m1K89LP00Qf0S-2" value="Model" style="text;html=1;align=center;verticalAlign=middle;whiteSpace=wrap;rounded=0;" vertex="1" parent="1">
          <mxGeometry x="-615" y="60" width="60" height="30" as="geometry" />
        </mxCell>
        <mxCell id="pEs0mI6m1K89LP00Qf0S-3" value="#Name" style="text;html=1;align=center;verticalAlign=middle;whiteSpace=wrap;rounded=0;" vertex="1" parent="1">
          <mxGeometry x="-700" y="100" width="60" height="30" as="geometry" />
        </mxCell>
        <mxCell id="pEs0mI6m1K89LP00Qf0S-4" value="Suffix" style="text;html=1;align=center;verticalAlign=middle;whiteSpace=wrap;rounded=0;" vertex="1" parent="1">
          <mxGeometry x="-700" y="130" width="60" height="30" as="geometry" />
        </mxCell>
        <mxCell id="pEs0mI6m1K89LP00Qf0S-6" value="Engine Size" style="text;html=1;align=center;verticalAlign=middle;whiteSpace=wrap;rounded=0;" vertex="1" parent="1">
          <mxGeometry x="-695" y="160" width="80" height="30" as="geometry" />
        </mxCell>
        <mxCell id="pEs0mI6m1K89LP00Qf0S-7" value="" style="rounded=0;whiteSpace=wrap;html=1;" vertex="1" parent="1">
          <mxGeometry x="-330" y="60" width="240" height="160" as="geometry" />
        </mxCell>
        <mxCell id="pEs0mI6m1K89LP00Qf0S-8" value="Part" style="text;html=1;align=center;verticalAlign=middle;whiteSpace=wrap;rounded=0;" vertex="1" parent="1">
          <mxGeometry x="-240" y="60" width="60" height="30" as="geometry" />
        </mxCell>
        <mxCell id="pEs0mI6m1K89LP00Qf0S-10" value="Description" style="text;html=1;align=center;verticalAlign=middle;whiteSpace=wrap;rounded=0;" vertex="1" parent="1">
          <mxGeometry x="-305" y="129" width="60" height="30" as="geometry" />
        </mxCell>
        <mxCell id="pEs0mI6m1K89LP00Qf0S-11" value="#ID Code" style="text;html=1;align=center;verticalAlign=middle;whiteSpace=wrap;rounded=0;" vertex="1" parent="1">
          <mxGeometry x="-316" y="99" width="60" height="30" as="geometry" />
        </mxCell>
        <mxCell id="pEs0mI6m1K89LP00Qf0S-16" value="" style="edgeStyle=entityRelationEdgeStyle;fontSize=12;html=1;endArrow=ERoneToMany;rounded=0;entryX=0;entryY=0.5;entryDx=0;entryDy=0;" edge="1" parent="1" target="pEs0mI6m1K89LP00Qf0S-7">
          <mxGeometry width="100" height="100" relative="1" as="geometry">
            <mxPoint x="-460" y="140" as="sourcePoint" />
            <mxPoint x="-360" y="40" as="targetPoint" />
          </mxGeometry>
        </mxCell>
        <mxCell id="pEs0mI6m1K89LP00Qf0S-21" value="" style="group" vertex="1" connectable="0" parent="1">
          <mxGeometry x="40" y="60" width="240" height="160" as="geometry" />
        </mxCell>
        <mxCell id="pEs0mI6m1K89LP00Qf0S-12" value="" style="rounded=0;whiteSpace=wrap;html=1;container=1;" vertex="1" parent="pEs0mI6m1K89LP00Qf0S-21">
          <mxGeometry width="240" height="160" as="geometry" />
        </mxCell>
        <mxCell id="pEs0mI6m1K89LP00Qf0S-20" value="" style="group" vertex="1" connectable="0" parent="pEs0mI6m1K89LP00Qf0S-21">
          <mxGeometry x="10" y="10" width="140" height="70" as="geometry" />
        </mxCell>
        <mxCell id="pEs0mI6m1K89LP00Qf0S-13" value="Factory" style="text;html=1;align=center;verticalAlign=middle;whiteSpace=wrap;rounded=0;" vertex="1" parent="pEs0mI6m1K89LP00Qf0S-20">
          <mxGeometry x="80" width="60" height="30" as="geometry" />
        </mxCell>
        <mxCell id="pEs0mI6m1K89LP00Qf0S-14" value="Location" style="text;html=1;align=center;verticalAlign=middle;whiteSpace=wrap;rounded=0;" vertex="1" parent="pEs0mI6m1K89LP00Qf0S-20">
          <mxGeometry y="40" width="60" height="30" as="geometry" />
        </mxCell>
        <mxCell id="pEs0mI6m1K89LP00Qf0S-26" value="" style="edgeStyle=entityRelationEdgeStyle;fontSize=12;html=1;endArrow=ERoneToMany;rounded=0;entryX=0;entryY=0.5;entryDx=0;entryDy=0;" edge="1" parent="1">
          <mxGeometry width="100" height="100" relative="1" as="geometry">
            <mxPoint x="-90" y="139.57" as="sourcePoint" />
            <mxPoint x="40" y="139.57" as="targetPoint" />
          </mxGeometry>
        </mxCell>
        <mxCell id="pEs0mI6m1K89LP00Qf0S-27" value="" style="rounded=0;whiteSpace=wrap;html=1;" vertex="1" parent="1">
          <mxGeometry x="-710" y="290" width="250" height="160" as="geometry" />
        </mxCell>
        <mxCell id="pEs0mI6m1K89LP00Qf0S-28" value="" style="rounded=0;whiteSpace=wrap;html=1;" vertex="1" parent="1">
          <mxGeometry x="-320" y="290" width="240" height="160" as="geometry" />
        </mxCell>
        <mxCell id="pEs0mI6m1K89LP00Qf0S-29" value="" style="group" vertex="1" connectable="0" parent="1">
          <mxGeometry x="50" y="290" width="240" height="160" as="geometry" />
        </mxCell>
        <mxCell id="pEs0mI6m1K89LP00Qf0S-30" value="" style="rounded=0;whiteSpace=wrap;html=1;container=1;" vertex="1" parent="pEs0mI6m1K89LP00Qf0S-29">
          <mxGeometry width="240" height="160" as="geometry" />
        </mxCell>
        <mxCell id="pEs0mI6m1K89LP00Qf0S-53" value="" style="group" vertex="1" connectable="0" parent="pEs0mI6m1K89LP00Qf0S-30">
          <mxGeometry x="-70" y="45" width="140" height="70" as="geometry" />
        </mxCell>
        <mxCell id="pEs0mI6m1K89LP00Qf0S-54" value="Topic" style="text;html=1;align=center;verticalAlign=middle;whiteSpace=wrap;rounded=0;" vertex="1" parent="pEs0mI6m1K89LP00Qf0S-53">
          <mxGeometry x="80" width="60" height="30" as="geometry" />
        </mxCell>
        <mxCell id="pEs0mI6m1K89LP00Qf0S-31" value="" style="group" vertex="1" connectable="0" parent="pEs0mI6m1K89LP00Qf0S-29">
          <mxGeometry x="10" y="10" width="140" height="70" as="geometry" />
        </mxCell>
        <mxCell id="pEs0mI6m1K89LP00Qf0S-32" value="Course" style="text;html=1;align=center;verticalAlign=middle;whiteSpace=wrap;rounded=0;" vertex="1" parent="pEs0mI6m1K89LP00Qf0S-31">
          <mxGeometry x="80" width="60" height="30" as="geometry" />
        </mxCell>
        <mxCell id="pEs0mI6m1K89LP00Qf0S-34" value="Instructor" style="text;html=1;align=center;verticalAlign=middle;whiteSpace=wrap;rounded=0;" vertex="1" parent="1">
          <mxGeometry x="-620" y="300" width="60" height="30" as="geometry" />
        </mxCell>
        <mxCell id="pEs0mI6m1K89LP00Qf0S-35" value="Team" style="text;html=1;align=center;verticalAlign=middle;whiteSpace=wrap;rounded=0;" vertex="1" parent="1">
          <mxGeometry x="-230" y="300" width="60" height="30" as="geometry" />
        </mxCell>
        <mxCell id="pEs0mI6m1K89LP00Qf0S-36" value="Name" style="text;html=1;align=center;verticalAlign=middle;whiteSpace=wrap;rounded=0;" vertex="1" parent="1">
          <mxGeometry x="-700" y="340" width="80" height="30" as="geometry" />
        </mxCell>
        <mxCell id="pEs0mI6m1K89LP00Qf0S-37" value="Job" style="text;html=1;align=center;verticalAlign=middle;whiteSpace=wrap;rounded=0;" vertex="1" parent="1">
          <mxGeometry x="-706" y="370" width="80" height="30" as="geometry" />
        </mxCell>
        <mxCell id="pEs0mI6m1K89LP00Qf0S-38" value="" style="rounded=0;whiteSpace=wrap;html=1;" vertex="1" parent="1">
          <mxGeometry x="70" y="610" width="240" height="160" as="geometry" />
        </mxCell>
        <mxCell id="pEs0mI6m1K89LP00Qf0S-55" value="Instructors" style="text;html=1;align=center;verticalAlign=middle;whiteSpace=wrap;rounded=0;" vertex="1" parent="1">
          <mxGeometry x="-316" y="340" width="80" height="30" as="geometry" />
        </mxCell>
        <mxCell id="pEs0mI6m1K89LP00Qf0S-56" value="" style="edgeStyle=entityRelationEdgeStyle;fontSize=12;html=1;endArrow=ERoneToMany;rounded=0;entryX=0;entryY=0.5;entryDx=0;entryDy=0;" edge="1" parent="1" target="pEs0mI6m1K89LP00Qf0S-28">
          <mxGeometry width="100" height="100" relative="1" as="geometry">
            <mxPoint x="-460" y="370" as="sourcePoint" />
            <mxPoint x="-330" y="370" as="targetPoint" />
          </mxGeometry>
        </mxCell>
        <mxCell id="pEs0mI6m1K89LP00Qf0S-57" value="" style="edgeStyle=entityRelationEdgeStyle;fontSize=12;html=1;endArrow=ERoneToMany;rounded=0;entryX=0;entryY=0.5;entryDx=0;entryDy=0;" edge="1" parent="1">
          <mxGeometry width="100" height="100" relative="1" as="geometry">
            <mxPoint x="-80" y="368.95" as="sourcePoint" />
            <mxPoint x="50" y="368.95" as="targetPoint" />
          </mxGeometry>
        </mxCell>
        <mxCell id="pEs0mI6m1K89LP00Qf0S-58" value="Trainee" style="text;html=1;align=center;verticalAlign=middle;whiteSpace=wrap;rounded=0;" vertex="1" parent="1">
          <mxGeometry x="160" y="620" width="60" height="30" as="geometry" />
        </mxCell>
        <mxCell id="pEs0mI6m1K89LP00Qf0S-65" value="" style="edgeStyle=entityRelationEdgeStyle;fontSize=12;html=1;endArrow=ERmandOne;startArrow=ERmandOne;rounded=0;exitX=0.405;exitY=-0.014;exitDx=0;exitDy=0;exitPerimeter=0;" edge="1" parent="1" source="pEs0mI6m1K89LP00Qf0S-38">
          <mxGeometry width="100" height="100" relative="1" as="geometry">
            <mxPoint x="130" y="600" as="sourcePoint" />
            <mxPoint x="180" y="450" as="targetPoint" />
          </mxGeometry>
        </mxCell>
      </root>
    </mxGraphModel>
  </diagram>
</mxfile>
